<?xml version="1.0" encoding="UTF-8" standalone="no"?>
<!DOCTYPE svg PUBLIC "-//W3C//DTD SVG 1.1//EN" "http://www.w3.org/Graphics/SVG/1.1/DTD/svg11.dtd">
<svg width="100%" height="100%" viewBox="0 0 128 128" version="1.1" xmlns="http://www.w3.org/2000/svg" xmlns:xlink="http://www.w3.org/1999/xlink" xml:space="preserve" xmlns:serif="http://www.serif.com/" style="fill-rule:evenodd;clip-rule:evenodd;stroke-linejoin:round;stroke-miterlimit:2;">
    <rect id="Artboard1" x="0" y="0" width="128" height="128" style="fill:none;"/>
    <g id="Artboard11" serif:id="Artboard1">
        <path d="M21.403,119.326c4.873,-6.161 9.578,-13.723 14.115,-22.685l26.97,-52.847c-2.857,-11.203 -5.532,-19.072 -8.024,-23.609c-2.493,-4.537 -6.315,-6.806 -11.469,-6.806c-4.761,0 -9.297,2.353 -13.61,7.058l-4.117,-4.537c7.729,-8.458 15.375,-12.687 22.937,-12.687c5.265,-0 9.354,1.498 12.266,4.495c2.913,2.997 5.349,7.772 7.31,14.325c1.96,6.553 4.733,19.212 8.318,37.976c4.649,24.477 8.275,39.923 10.88,46.336c2.604,6.413 5.699,9.62 9.284,9.62c2.576,0 4.957,-0.896 7.141,-2.688l3.193,5.041c-5.545,4.313 -10.53,6.469 -14.955,6.469c-6.273,0 -10.754,-3.221 -13.443,-9.662c-2.689,-6.441 -6.441,-23.777 -11.258,-52.007l-0.504,-0c-9.523,19.324 -18.849,39.432 -27.978,60.325l-17.056,-0l-0,-4.117Z" style="fill-rule:nonzero;"/>
    </g>
</svg>
